<svg width="120" height="121" viewBox="0 0 120 121" fill="none" xmlns="http://www.w3.org/2000/svg">
<g clip-path="url(#clip0_214_4557)">
<path d="M3.16267 100.127L53.0563 13.5382C56.0381 8.36358 63.4924 8.36358 66.4733 13.5382L116.368 100.127C119.35 105.3 115.623 111.768 109.659 111.768H9.87167C3.90791 111.768 0.180793 105.3 3.16267 100.127Z" fill="#FFB954"/>
<path d="M92.2537 60.6264C91.6376 60.6264 91.0333 60.3751 90.5975 59.9384C90.1608 59.5018 89.9109 58.8964 89.9109 58.2781C89.9109 57.6607 90.1608 57.0553 90.5975 56.6187C91.0333 56.182 91.6376 55.9307 92.2537 55.9307C92.8708 55.9307 93.475 56.182 93.9108 56.6187C94.3466 57.0553 94.5975 57.6607 94.5975 58.2781C94.5975 58.8964 94.3466 59.5018 93.9108 59.9384C93.475 60.3751 92.8708 60.6264 92.2537 60.6264Z" fill="black"/>
<path d="M109.659 114.117H9.87166C6.22328 114.117 2.95667 112.227 1.13294 109.062C-0.690797 105.897 -0.690797 102.117 1.13294 98.9525L51.0274 12.364C52.8512 9.19925 56.1178 7.30957 59.7653 7.30957C63.4127 7.30957 66.6793 9.19925 68.5031 12.364L89.1922 48.2679C89.8395 49.3907 89.4549 50.8272 88.3343 51.4757C87.2128 52.1234 85.78 51.739 85.1327 50.6162L64.4445 14.7123C63.4677 13.018 61.7181 12.0053 59.7653 12.0053C57.8124 12.0053 56.0629 13.018 55.086 14.7123L5.19239 101.3C4.21552 102.995 4.21552 105.019 5.19239 106.714C6.16835 108.409 7.91792 109.421 9.87166 109.421H109.659C111.613 109.421 113.361 108.409 114.338 106.714C115.315 105.019 115.315 102.995 114.338 101.3L94.3384 66.5913C93.6911 65.4685 94.0756 64.0329 95.1962 63.3844C96.3168 62.7358 97.7506 63.1202 98.3978 64.2439L118.398 98.9525C120.221 102.117 120.221 105.897 118.398 109.062C116.573 112.227 113.307 114.117 109.659 114.117Z" fill="black"/>
<path d="M54.609 49.6478V70.8397C54.609 73.6926 56.918 76.0052 59.7653 76.0052C62.6126 76.0052 64.9215 73.6926 64.9215 70.8397V49.6478C64.9215 46.795 62.6126 44.4824 59.7653 44.4824C56.918 44.4824 54.609 46.795 54.609 49.6478Z" fill="#DC3545"/>
<path d="M59.7653 78.3532C55.6298 78.3532 52.2662 74.9821 52.2662 70.8395V49.6475C52.2662 45.504 55.6298 42.1338 59.7653 42.1338C63.9007 42.1338 67.2644 45.504 67.2644 49.6475V70.8395C67.2644 74.9821 63.9007 78.3532 59.7653 78.3532ZM59.7653 46.8305C58.2144 46.8305 56.9528 48.0945 56.9528 49.6475V70.8395C56.9528 72.3934 58.2144 73.6575 59.7653 73.6575C61.3162 73.6575 62.5778 72.3934 62.5778 70.8395V49.6475C62.5778 48.0945 61.3162 46.8305 59.7653 46.8305Z" fill="black"/>
<path d="M54.609 91.5033C54.609 94.3562 56.918 96.6697 59.7653 96.6697C62.6126 96.6697 64.9215 94.3562 64.9215 91.5033C64.9215 88.6505 62.6126 86.3379 59.7653 86.3379C56.918 86.337 54.609 88.6505 54.609 91.5033Z" fill="#DC3545"/>
<path d="M59.7653 99.0168C55.6298 99.0168 52.2662 95.6465 52.2662 91.503C52.2662 87.3595 55.6298 83.9893 59.7653 83.9893C63.9007 83.9893 67.2644 87.3595 67.2644 91.503C67.2644 93.5101 66.4843 95.397 65.068 96.8161C63.6517 98.2352 61.7685 99.0168 59.7653 99.0168ZM59.7653 88.685C58.2144 88.685 56.9528 89.9491 56.9528 91.503C56.9528 93.057 58.2144 94.321 59.7653 94.321C60.516 94.321 61.2228 94.0275 61.7538 93.4954C62.2848 92.9634 62.5778 92.2552 62.5778 91.503C62.5778 89.9491 61.3162 88.685 59.7653 88.685Z" fill="black"/>
</g>
<defs>
<clipPath id="clip0_214_4557">
<rect width="120" height="120" fill="white" transform="translate(-0.000488281 0.617188)"/>
</clipPath>
</defs>
</svg>
