<svg width="20" height="20" viewBox="0 0 20 20" fill="none" xmlns="http://www.w3.org/2000/svg">
<path d="M7 2C7.40625 2 7.75 2.34375 7.75 2.75V4H12.25V2.75C12.25 2.34375 12.5625 2 13 2C13.4062 2 13.75 2.34375 13.75 2.75V4H15C16.0938 4 17 4.90625 17 6V6.5V8V16C17 17.125 16.0938 18 15 18H5C3.875 18 3 17.125 3 16V8V6.5V6C3 4.90625 3.875 4 5 4H6.25V2.75C6.25 2.34375 6.5625 2 7 2ZM15.5 8H4.5V16C4.5 16.2812 4.71875 16.5 5 16.5H15C15.25 16.5 15.5 16.2812 15.5 16V8ZM6.5 10H9.5C9.75 10 10 10.25 10 10.5V13.5C10 13.7812 9.75 14 9.5 14H6.5C6.21875 14 6 13.7812 6 13.5V10.5C6 10.25 6.21875 10 6.5 10Z" fill="black"/>
</svg>
