<svg width="102" height="30" viewBox="0 0 102 30" fill="none" xmlns="http://www.w3.org/2000/svg">
<path fill-rule="evenodd" clip-rule="evenodd" d="M0 0.00125766H9.01272V7.29253H0V0.00125766Z" fill="#0072D4"/>
<path fill-rule="evenodd" clip-rule="evenodd" d="M0 10.2772H9.01272V29.8314H0V10.2772Z" fill="#0072D4"/>
<path fill-rule="evenodd" clip-rule="evenodd" d="M12.1788 10.1089H21.8239V29.8274H12.1788V10.1089Z" fill="#0072D4"/>
<path fill-rule="evenodd" clip-rule="evenodd" d="M31.6281 10.1089H40.6408V29.8274H31.6281V10.1089Z" fill="#0072D4"/>
<path fill-rule="evenodd" clip-rule="evenodd" d="M12.1788 0.00125766H32.4197C36.6792 0.288639 39.4169 3.01055 40.3267 7.30074L12.1788 7.29253V0.00125766Z" fill="#0072D4"/>
<path fill-rule="evenodd" clip-rule="evenodd" d="M43.6479 0.00125766H70.8492V7.29253H43.6479V0.00125766Z" fill="#0072D4"/>
<path fill-rule="evenodd" clip-rule="evenodd" d="M43.6479 10.1089H70.6901V18.3937H52.6606V21.5426H70.8452V29.8274H43.6601L43.6479 10.1089Z" fill="#0072D4"/>
<path fill-rule="evenodd" clip-rule="evenodd" d="M73.3748 0.00126966H93.6156C97.8058 -0.0644175 101.404 2.41938 101.918 7.29254H73.3707L73.3748 0.00126966Z" fill="#0072D4"/>
<path fill-rule="evenodd" clip-rule="evenodd" d="M73.3747 10.2772H102C101.58 14.514 98.3158 17.8599 93.6197 18.3978H83.0239V29.8232H73.3788V10.2772H73.3747Z" fill="#0072D4"/>
</svg>
