<svg width="85" height="19" viewBox="0 0 85 19" fill="none" xmlns="http://www.w3.org/2000/svg">
<path d="M25.1946 5.24288H25.6701L31.0327 18.3223L32.1031 14.7496L28.2608 5.24288H25.1946Z" fill="#009677"/>
<mask id="mask0_163_3552" style="mask-type:luminance" maskUnits="userSpaceOnUse" x="25" y="5" width="8" height="14">
<path d="M28.2608 5.24288H25.6702L31.0328 18.3223L32.1032 14.7496L28.2608 5.24288Z" fill="white"/>
</mask>
<g mask="url(#mask0_163_3552)">
<path d="M32.1032 5.24288H25.6702V18.3223H32.1032V5.24288Z" fill="url(#paint0_linear_163_3552)"/>
</g>
<mask id="mask1_163_3552" style="mask-type:luminance" maskUnits="userSpaceOnUse" x="31" y="2" width="12" height="17">
<path d="M42.2868 2.86026C41.2548 2.86026 38.8837 2.85813 38.679 2.95198C38.3698 3.09489 38.1118 3.32525 37.8709 3.56414C36.9711 4.46212 36.3634 5.50728 35.7728 6.6207C34.7642 8.52118 34.0627 10.5667 33.278 12.5674L32.2972 15.2678L31.0328 18.463H33.551L34.2589 16.6137L36.1267 12.0982C36.7088 10.6819 37.3016 9.2016 38.0223 7.81943C38.9925 5.95947 40.6556 3.62173 42.7644 2.86026C42.7538 2.86026 42.5725 2.86026 42.2889 2.86026H42.2868Z" fill="white"/>
</mask>
<g mask="url(#mask1_163_3552)">
<path d="M42.7623 2.85786H31.0328V18.4627H42.7623V2.85786Z" fill="url(#paint1_linear_163_3552)"/>
</g>
<path d="M57.4599 5.64386H55.0334V18.4247H57.4599V5.64386Z" fill="#1D1D1B"/>
<path d="M82.8955 15.9099C82.8955 16.5818 83.275 16.9038 83.8891 16.9038C84.1812 16.9038 84.6482 16.8164 85 16.6116V17.9277C84.5608 18.3671 84.0341 18.6891 83.0405 18.6891C81.7249 18.6891 80.7888 17.6952 80.6438 16.1744C79.9423 17.6653 78.1299 18.7766 76.0531 18.7766C73.569 18.7766 71.9592 17.4307 71.9592 15.238C71.9592 12.8107 74.036 11.8167 77.1043 11.2024L80.5543 10.5006V10.0037C80.5543 8.24822 79.5308 7.1668 77.7482 7.1668C75.9657 7.1668 74.9123 8.24822 74.5328 9.7413L72.3686 9.44908C72.8654 7.05162 74.7673 5.29618 77.7781 5.29618C80.9935 5.29618 82.8955 6.93431 82.8955 10.1807V15.912V15.9099ZM68.6286 15.7627C68.0443 17.3432 66.4366 18.7745 64.0379 18.7745C60.236 18.7745 58.1912 15.8203 58.1912 12.047C58.1912 8.27381 60.2382 5.29191 64.0379 5.29191C66.4345 5.29191 68.0443 6.75514 68.6286 8.33354V0H71.0551V18.4268H68.6286V15.7648V15.7627ZM68.6584 11.6674C68.6584 8.88811 66.9036 7.24999 64.5944 7.24999C62.0804 7.24999 60.6774 9.12274 60.6774 12.047C60.6774 14.9714 62.0804 16.8441 64.5944 16.8441C66.9036 16.8441 68.6584 15.206 68.6584 12.399V11.6674ZM55.0334 0H57.543V2.74514H55.0334V0ZM54.1336 18.4268H51.7071V0H54.1336V18.4268ZM48.8712 15.912C48.8712 16.5839 49.2507 16.906 49.8648 16.906C50.1569 16.906 50.6239 16.8185 50.9757 16.6138V17.9298C50.5364 18.3692 50.0098 18.6913 49.0162 18.6913C47.7006 18.6913 46.7645 17.6973 46.6195 16.1765C45.918 17.6674 44.1056 18.7787 42.0288 18.7787C39.5447 18.7787 37.9349 17.4328 37.9349 15.2401C37.9349 12.8128 40.0117 11.8188 43.08 11.2045L46.53 10.5028V10.0058C46.53 8.25035 45.5065 7.16893 43.7239 7.16893C41.9413 7.16893 40.888 8.25035 40.5085 9.74344L38.3442 9.45122C38.8411 7.05375 40.743 5.29831 43.7538 5.29831C46.9692 5.29831 48.8712 6.93644 48.8712 10.1828V15.9141V15.912ZM46.5321 12.1089L43.6663 12.7232C41.6492 13.1626 40.3614 13.5423 40.3614 15.0929C40.3614 16.1744 41.0927 16.9934 42.5554 16.9934C44.8071 16.9934 46.5321 15.2977 46.5321 12.7232V12.1089ZM24.8279 13.8921C24.3012 15.8523 23.0432 16.8207 20.9088 16.8207C18.6295 16.8207 16.8469 14.9564 16.7296 12.527H26.5444V11.6674C26.5444 9.96526 26.2267 8.40393 25.2416 7.25212C24.2202 6.04912 22.7532 5.29191 20.6743 5.29191C18.8278 5.29191 17.2542 6.01926 16.0985 7.25212C14.9492 8.47858 14.2797 10.2106 14.2797 12.2262C14.2797 16.2042 17.0687 18.7766 20.8683 18.7766C24.056 18.7766 26.1947 17.0212 26.8386 14.1246L24.8279 13.8899V13.8921ZM19.7915 7.1796C20.0943 7.10494 20.4184 7.09854 20.7638 7.09854C21.1093 7.09854 21.4504 7.08575 21.7511 7.16253C23.5017 7.59979 24.3418 9.02036 24.4185 10.9102H16.7893C17.0388 9.02249 18.0687 7.61259 19.7915 7.18173V7.1796ZM12.0472 18.4246C11.6954 17.9277 11.4331 16.5818 11.286 14.4168C11.1687 12.3691 10.2049 10.9955 7.68889 10.9955H2.48407V18.4246H0V0H7.4842C12.1624 0 14.414 2.16497 14.414 5.43909C14.414 8.27595 12.4843 9.7669 10.2327 10.0314C12.4843 10.4708 13.5654 11.8444 13.7423 14.0094C13.9769 16.7012 14.0643 17.7528 14.6784 18.4268H12.0472V18.4246ZM7.3392 8.9777C10.4672 8.9777 11.8702 7.80883 11.8702 5.52654C11.8702 3.42129 10.4672 2.07539 7.3392 2.07539H2.48407V8.9777H7.33707H7.3392ZM80.5585 12.1068L77.6928 12.7211C75.6757 13.1605 74.3899 13.5401 74.3899 15.0908C74.3899 16.1722 75.1213 16.9913 76.5819 16.9913C78.8335 16.9913 80.5585 15.2956 80.5585 12.7211V12.1068Z" fill="#1D1D1B"/>
<path d="M82.8955 15.9099C82.8955 16.5818 83.275 16.9038 83.8891 16.9038C84.1812 16.9038 84.6482 16.8164 85 16.6116V17.9277C84.5608 18.3671 84.0341 18.6891 83.0405 18.6891C81.7249 18.6891 80.7888 17.6952 80.6438 16.1744C79.9423 17.6653 78.1299 18.7766 76.0531 18.7766C73.569 18.7766 71.9592 17.4307 71.9592 15.238C71.9592 12.8107 74.036 11.8167 77.1043 11.2024L80.5543 10.5006V10.0037C80.5543 8.24822 79.5308 7.1668 77.7482 7.1668C75.9657 7.1668 74.9123 8.24822 74.5328 9.7413L72.3686 9.44908C72.8654 7.05162 74.7673 5.29618 77.7781 5.29618C80.9935 5.29618 82.8955 6.93431 82.8955 10.1807V15.912V15.9099ZM68.6286 15.7627C68.0443 17.3432 66.4366 18.7745 64.0379 18.7745C60.236 18.7745 58.1912 15.8203 58.1912 12.047C58.1912 8.27381 60.2382 5.29191 64.0379 5.29191C66.4345 5.29191 68.0443 6.75514 68.6286 8.33354V0H71.0551V18.4268H68.6286V15.7648V15.7627ZM68.6584 11.6674C68.6584 8.88811 66.9036 7.24999 64.5944 7.24999C62.0804 7.24999 60.6774 9.12274 60.6774 12.047C60.6774 14.9714 62.0804 16.8441 64.5944 16.8441C66.9036 16.8441 68.6584 15.206 68.6584 12.399V11.6674ZM55.0334 0H57.543V2.74514H55.0334V0ZM54.1336 18.4268H51.7071V0H54.1336V18.4268ZM48.8712 15.912C48.8712 16.5839 49.2507 16.906 49.8648 16.906C50.1569 16.906 50.6239 16.8185 50.9757 16.6138V17.9298C50.5364 18.3692 50.0098 18.6913 49.0162 18.6913C47.7006 18.6913 46.7645 17.6973 46.6195 16.1765C45.918 17.6674 44.1056 18.7787 42.0288 18.7787C39.5447 18.7787 37.9349 17.4328 37.9349 15.2401C37.9349 12.8128 40.0117 11.8188 43.08 11.2045L46.53 10.5028V10.0058C46.53 8.25035 45.5065 7.16893 43.7239 7.16893C41.9413 7.16893 40.888 8.25035 40.5085 9.74344L38.3442 9.45122C38.8411 7.05375 40.743 5.29831 43.7538 5.29831C46.9692 5.29831 48.8712 6.93644 48.8712 10.1828V15.9141V15.912ZM46.5321 12.1089L43.6663 12.7232C41.6492 13.1626 40.3614 13.5423 40.3614 15.0929C40.3614 16.1744 41.0927 16.9934 42.5554 16.9934C44.8071 16.9934 46.5321 15.2977 46.5321 12.7232V12.1089ZM24.8279 13.8921C24.3012 15.8523 23.0432 16.8207 20.9088 16.8207C18.6295 16.8207 16.8469 14.9564 16.7296 12.527H26.5444V11.6674C26.5444 9.96526 26.2267 8.40393 25.2416 7.25212C24.2202 6.04912 22.7532 5.29191 20.6743 5.29191C18.8278 5.29191 17.2542 6.01926 16.0985 7.25212C14.9492 8.47858 14.2797 10.2106 14.2797 12.2262C14.2797 16.2042 17.0687 18.7766 20.8683 18.7766C24.056 18.7766 26.1947 17.0212 26.8386 14.1246L24.8279 13.8899V13.8921ZM19.7915 7.1796C20.0943 7.10494 20.4184 7.09854 20.7638 7.09854C21.1093 7.09854 21.4504 7.08575 21.7511 7.16253C23.5017 7.59979 24.3418 9.02036 24.4185 10.9102H16.7893C17.0388 9.02249 18.0687 7.61259 19.7915 7.18173V7.1796ZM12.0472 18.4246C11.6954 17.9277 11.4331 16.5818 11.286 14.4168C11.1687 12.3691 10.2049 10.9955 7.68889 10.9955H2.48407V18.4246H0V0H7.4842C12.1624 0 14.414 2.16497 14.414 5.43909C14.414 8.27595 12.4843 9.7669 10.2327 10.0314C12.4843 10.4708 13.5654 11.8444 13.7423 14.0094C13.9769 16.7012 14.0643 17.7528 14.6784 18.4268H12.0472V18.4246ZM7.3392 8.9777C10.4672 8.9777 11.8702 7.80883 11.8702 5.52654C11.8702 3.42129 10.4672 2.07539 7.3392 2.07539H2.48407V8.9777H7.33707H7.3392ZM80.5585 12.1068L77.6928 12.7211C75.6757 13.1605 74.3899 13.5401 74.3899 15.0908C74.3899 16.1722 75.1213 16.9913 76.5819 16.9913C78.8335 16.9913 80.5585 15.2956 80.5585 12.7211V12.1068Z" fill="#1D1D1B"/>
<defs>
<linearGradient id="paint0_linear_163_3552" x1="21.3886" y1="3.12697" x2="33.56" y2="17.1664" gradientUnits="userSpaceOnUse">
<stop stop-color="#009677"/>
<stop offset="0.7" stop-color="#009677"/>
<stop offset="1"/>
</linearGradient>
<linearGradient id="paint1_linear_163_3552" x1="33.6661" y1="19.4354" x2="40.135" y2="1.88879" gradientUnits="userSpaceOnUse">
<stop stop-color="#0C7BBF"/>
<stop offset="0.45" stop-color="#0C7BBF"/>
<stop offset="0.92" stop-color="#43BDD9"/>
<stop offset="1" stop-color="#43BDD9"/>
</linearGradient>
</defs>
</svg>
