<svg width="21" height="20" viewBox="0 0 21 20" fill="none" xmlns="http://www.w3.org/2000/svg">
<path d="M13 3H17C17.5312 3 18 3.46875 18 4C18 4.5625 17.5312 5 17 5H13.4375C13.2812 5.8125 12.7188 6.5 12 6.8125V16H17C17.5312 16 18 16.4688 18 17C18 17.5625 17.5312 18 17 18H11H5C4.4375 18 4 17.5625 4 17C4 16.4688 4.4375 16 5 16H10V6.8125C9.25 6.46875 8.6875 5.8125 8.53125 5H5C4.4375 5 4 4.5625 4 4C4 3.46875 4.4375 3 5 3H9C9.4375 2.40625 10.1562 2 11 2C11.8125 2 12.5312 2.40625 13 3ZM14.7188 12H19.25L17 8.125L14.7188 12ZM17 15C15.0312 15 13.375 13.9375 13.0625 12.5625C12.9688 12.2188 13.0938 11.8438 13.25 11.5312L16.2188 6.4375C16.375 6.1875 16.6875 6 17 6C17.2812 6 17.5938 6.1875 17.75 6.4375L20.7188 11.5312C20.9062 11.8438 21 12.2188 20.9375 12.5625C20.5938 13.9375 18.9375 15 17 15ZM4.9375 8.125L2.6875 12H7.21875L4.9375 8.125ZM1 12.5625C0.9375 12.2188 1.03125 11.8438 1.21875 11.5312L4.1875 6.4375C4.34375 6.1875 4.65625 6 4.9375 6C5.25 6 5.5625 6.1875 5.71875 6.4375L8.6875 11.5312C8.84375 11.8438 8.96875 12.2188 8.875 12.5625C8.5625 13.9375 6.90625 15 4.9375 15C2.96875 15 1.34375 13.9375 1 12.5625Z" fill="white"/>
</svg>
