<svg width="20" height="20" viewBox="0 0 20 20" fill="none" xmlns="http://www.w3.org/2000/svg">
<path d="M2 10C2 7.15625 3.5 4.53125 6 3.09375C8.46875 1.65625 11.5 1.65625 14 3.09375C16.4688 4.53125 18 7.15625 18 10C18 12.875 16.4688 15.5 14 16.9375C11.5 18.375 8.46875 18.375 6 16.9375C3.5 15.5 2 12.875 2 10ZM7.875 6.625C7.625 6.75 7.5 7 7.5 7.25V12.75C7.5 13.0312 7.625 13.2812 7.875 13.4062C8.09375 13.5625 8.40625 13.5312 8.625 13.4062L13.125 10.6562C13.3438 10.5 13.5 10.2812 13.5 10C13.5 9.75 13.3438 9.5 13.125 9.375L8.625 6.625C8.40625 6.46875 8.09375 6.46875 7.875 6.59375V6.625Z" fill="white"/>
</svg>
