<svg width="20" height="20" viewBox="0 0 20 20" fill="none" xmlns="http://www.w3.org/2000/svg">
<path d="M6 2H13.0625C13.5938 2 14.125 2.21875 14.5 2.59375L15.4062 3.5C15.7812 3.875 16 4.40625 16 4.9375V7H14V4.9375L13.0625 4H6V7H4V4C4 2.90625 4.875 2 6 2ZM14 13H6V13.5V14V16H14V14V13ZM16 14V16C16 17.125 15.0938 18 14 18H6C4.875 18 4 17.125 4 16V14H3C2.4375 14 2 13.5625 2 13V10C2 8.90625 2.875 8 4 8H16C17.0938 8 18 8.90625 18 10V13C18 13.5625 17.5312 14 17 14H16ZM15.5 9.75C15.0625 9.75 14.75 10.0938 14.75 10.5C14.75 10.9375 15.0625 11.25 15.5 11.25C15.9062 11.25 16.25 10.9375 16.25 10.5C16.25 10.0938 15.9062 9.75 15.5 9.75Z" fill="white"/>
</svg>
